<svg xmlns="http://www.w3.org/2000/svg" viewBox="0 0 60 40">
  <!-- Stripes -->
  <rect width="60" height="40" fill="#B22234"/>
  <rect y="3.077" width="60" height="3.077" fill="#FFF"/>
  <rect y="9.231" width="60" height="3.077" fill="#FFF"/>
  <rect y="15.385" width="60" height="3.077" fill="#FFF"/>
  <rect y="21.538" width="60" height="3.077" fill="#FFF"/>
  <rect y="27.692" width="60" height="3.077" fill="#FFF"/>
  <rect y="33.846" width="60" height="3.077" fill="#FFF"/>
  <!-- Canton -->
  <rect width="24" height="21.538" fill="#3C3B6E"/>
  <!-- Stars (simplified 5 rows) -->
  <g fill="#FFF" font-family="serif" font-size="3">
    <!-- Row 1: 6 stars -->
    <circle cx="2.4" cy="2.2" r="1"/><circle cx="6.4" cy="2.2" r="1"/><circle cx="10.4" cy="2.2" r="1"/><circle cx="14.4" cy="2.2" r="1"/><circle cx="18.4" cy="2.2" r="1"/><circle cx="22.4" cy="2.2" r="1"/>
    <!-- Row 2: 5 stars -->
    <circle cx="4.4" cy="5.5" r="1"/><circle cx="8.4" cy="5.5" r="1"/><circle cx="12.4" cy="5.5" r="1"/><circle cx="16.4" cy="5.5" r="1"/><circle cx="20.4" cy="5.5" r="1"/>
    <!-- Row 3: 6 stars -->
    <circle cx="2.4" cy="8.8" r="1"/><circle cx="6.4" cy="8.8" r="1"/><circle cx="10.4" cy="8.8" r="1"/><circle cx="14.4" cy="8.8" r="1"/><circle cx="18.4" cy="8.8" r="1"/><circle cx="22.4" cy="8.8" r="1"/>
    <!-- Row 4: 5 stars -->
    <circle cx="4.4" cy="12.1" r="1"/><circle cx="8.4" cy="12.1" r="1"/><circle cx="12.4" cy="12.1" r="1"/><circle cx="16.4" cy="12.1" r="1"/><circle cx="20.4" cy="12.1" r="1"/>
    <!-- Row 5: 6 stars -->
    <circle cx="2.4" cy="15.4" r="1"/><circle cx="6.4" cy="15.4" r="1"/><circle cx="10.4" cy="15.4" r="1"/><circle cx="14.4" cy="15.4" r="1"/><circle cx="18.4" cy="15.4" r="1"/><circle cx="22.4" cy="15.4" r="1"/>
    <!-- Row 6: 5 stars -->
    <circle cx="4.4" cy="18.7" r="1"/><circle cx="8.4" cy="18.7" r="1"/><circle cx="12.4" cy="18.7" r="1"/><circle cx="16.4" cy="18.7" r="1"/><circle cx="20.4" cy="18.7" r="1"/>
  </g>
</svg>
